<svg width="28" height="28" viewBox="0 0 28 28" fill="none" xmlns="http://www.w3.org/2000/svg">
<g id="Anon Apps">
<g id="Union">
<mask id="path-1-outside-1_9461_2084" maskUnits="userSpaceOnUse" x="3" y="1" width="22" height="26" fill="black">
<rect fill="white" x="3" y="1" width="22" height="26"/>
<path fill-rule="evenodd" clip-rule="evenodd" d="M21.0782 10.6931C21.8477 9.88188 22.8018 8.87624 22.558 7.49443C21.5 4.00001 18.3216 3.37127 14.4473 4.33682C10.573 5.30237 7.92288 8.28154 8.52803 10.991C8.65309 11.4381 9.002 11.687 9.2858 11.8894C9.64189 12.1433 9.89546 12.3242 9.47565 12.732C9.45359 12.7534 9.43296 12.7737 9.41372 12.793C6.98414 14.4918 5.6091 17.1282 6.09813 19.7276C6.80443 23.4817 11.1316 25.7368 15.7631 24.7645C20.3946 23.7922 23.5767 19.9607 22.8704 16.2065C22.5751 14.6373 21.6473 13.33 20.329 12.4108C20.323 12.4019 20.3167 12.393 20.3102 12.384C19.9485 11.8838 20.4523 11.3527 21.0782 10.6931ZM19.3639 16.2593C19.9718 18.6122 18.16 21.184 15.3171 22.0035C12.4743 22.8231 9.67687 21.5802 9.06896 19.2274C8.46106 16.8745 10.2729 14.3027 13.1157 13.4832C15.9586 12.6636 18.756 13.9065 19.3639 16.2593ZM15.869 10.7561C17.8602 9.96764 19.0185 8.04419 18.4563 6.46C17.8941 4.8758 15.8242 4.23076 13.8331 5.01926C11.8419 5.80776 10.6836 7.73121 11.2458 9.3154C11.808 10.8996 13.8779 11.5446 15.869 10.7561Z"/>
</mask>
<path d="M22.558 7.49443L24.5276 7.14698L24.5068 7.02927L24.4722 6.91488L22.558 7.49443ZM21.0782 10.6931L19.6272 9.31655V9.31655L21.0782 10.6931ZM14.4473 4.33682L14.9309 6.27746L14.4473 4.33682ZM8.52803 10.991L6.57612 11.4269L6.58767 11.4787L6.60195 11.5297L8.52803 10.991ZM9.2858 11.8894L8.1245 13.5177L8.1245 13.5177L9.2858 11.8894ZM9.47565 12.732L8.08217 11.2973L8.08217 11.2973L9.47565 12.732ZM9.41372 12.793L10.5598 14.4321L10.7047 14.3307L10.8297 14.2055L9.41372 12.793ZM6.09813 19.7276L4.13262 20.0973H4.13262L6.09813 19.7276ZM15.7631 24.7645L15.3522 22.8072L15.3522 22.8072L15.7631 24.7645ZM22.8704 16.2065L20.9049 16.5763V16.5763L22.8704 16.2065ZM20.329 12.4108L18.6717 13.5305L18.88 13.8387L19.1851 14.0514L20.329 12.4108ZM20.3102 12.384L21.9309 11.2121L21.9308 11.212L20.3102 12.384ZM19.3639 16.2593L17.4275 16.7597V16.7597L19.3639 16.2593ZM9.06896 19.2274L11.0054 18.7271V18.727L9.06896 19.2274ZM13.1157 13.4832L13.6697 15.4049H13.6697L13.1157 13.4832ZM18.4563 6.46L20.3411 5.79109V5.79109L18.4563 6.46ZM15.869 10.7561L16.6054 12.6156L15.869 10.7561ZM13.8331 5.01926L14.5694 6.87876V6.87876L13.8331 5.01926ZM11.2458 9.3154L13.1306 8.64649V8.64649L11.2458 9.3154ZM20.5884 7.84188C20.6079 7.95251 20.6023 8.07234 20.4672 8.30571C20.3004 8.59379 20.0393 8.88215 19.6272 9.31655L22.5291 12.0695C23.1516 11.4133 24.9733 9.67381 24.5276 7.14698L20.5884 7.84188ZM14.9309 6.27746C16.6947 5.83791 18.0261 5.83859 18.9228 6.13933C19.686 6.39531 20.2919 6.91185 20.6438 8.07398L24.4722 6.91488C23.766 4.58259 22.2538 3.03756 20.1947 2.34695C18.2691 1.7011 16.0742 1.87019 13.9636 2.39618L14.9309 6.27746ZM10.4799 10.555C10.3581 10.0096 10.5177 9.2211 11.3022 8.33923C12.0772 7.46798 13.3408 6.67376 14.9309 6.27746L13.9636 2.39618C11.6795 2.96543 9.68088 4.14357 8.31356 5.68065C6.95568 7.20712 6.09279 9.26288 6.57612 11.4269L10.4799 10.555ZM10.4471 10.2611C10.3711 10.2068 10.3344 10.1803 10.3033 10.1558C10.2758 10.1341 10.2749 10.131 10.2868 10.1434C10.3 10.1571 10.3308 10.1915 10.3649 10.247C10.4002 10.3047 10.4324 10.3746 10.4541 10.4523L6.60195 11.5297C6.94193 12.7453 7.90382 13.3603 8.1245 13.5177L10.4471 10.2611ZM10.8691 14.1666C11.0738 13.9678 11.3661 13.6398 11.5431 13.1736C11.752 12.623 11.7478 12.0139 11.5068 11.4579C11.3054 10.9929 10.9946 10.6998 10.8438 10.5675C10.6855 10.4286 10.5133 10.3083 10.4471 10.2611L8.1245 13.5177C8.23638 13.5975 8.22934 13.595 8.20567 13.5742C8.18947 13.56 7.98257 13.3852 7.83654 13.0481C7.65105 12.62 7.65373 12.1485 7.80327 11.7544C7.86566 11.59 7.94023 11.4741 7.98878 11.4078C8.03748 11.3412 8.0748 11.3045 8.08217 11.2973L10.8691 14.1666ZM10.8297 14.2055C10.8408 14.1944 10.8538 14.1814 10.8691 14.1666L8.08217 11.2973C8.05332 11.3253 8.02517 11.3531 7.99778 11.3805L10.8297 14.2055ZM8.06365 19.3578C7.75792 17.7327 8.58725 15.8113 10.5598 14.4321L8.26768 11.1539C5.38103 13.1723 3.46028 16.5237 4.13262 20.0973L8.06365 19.3578ZM15.3522 22.8072C11.3923 23.6385 8.49042 21.6262 8.06365 19.3578L4.13262 20.0973C5.11844 25.3373 10.8709 27.8352 16.174 26.7219L15.3522 22.8072ZM20.9049 16.5763C21.3421 18.9001 19.3185 21.9746 15.3522 22.8072L16.174 26.7219C21.4708 25.6099 25.8113 21.0212 24.8359 15.8367L20.9049 16.5763ZM19.1851 14.0514C20.1298 14.7101 20.7185 15.5856 20.9049 16.5763L24.8359 15.8367C24.4318 13.689 23.1647 11.9499 21.4729 10.7702L19.1851 14.0514ZM18.6895 13.5559C18.684 13.5483 18.678 13.5398 18.6717 13.5305L21.9862 11.2912C21.9679 11.2641 21.9495 11.2377 21.9309 11.2121L18.6895 13.5559ZM19.6272 9.31655C19.3768 9.58054 18.8935 10.0712 18.5881 10.6049C18.4179 10.9022 18.2181 11.3496 18.1918 11.9074C18.1631 12.5165 18.3493 13.0855 18.6896 13.556L21.9308 11.212C22.0011 11.3091 22.0742 11.4409 22.125 11.6059C22.1764 11.7726 22.1947 11.94 22.1874 12.0957C22.1734 12.3927 22.0709 12.5722 22.0597 12.5918C22.0471 12.6137 22.0635 12.5809 22.1583 12.4709C22.2508 12.3636 22.3647 12.2429 22.5291 12.0695L19.6272 9.31655ZM15.8712 23.9253C19.3985 22.9083 22.2631 19.4856 21.3003 15.759L17.4275 16.7597C17.6804 17.7388 16.9214 19.4596 14.7631 20.0818L15.8712 23.9253ZM7.13255 19.7277C8.11354 23.5245 12.3328 24.9454 15.8712 23.9253L14.7631 20.0818C12.6157 20.7009 11.2402 19.6359 11.0054 18.7271L7.13255 19.7277ZM12.5617 11.5614C9.03432 12.5784 6.16973 16.0011 7.13255 19.7277L11.0054 18.727C10.7524 17.7479 11.5114 16.0271 13.6697 15.4049L12.5617 11.5614ZM21.3003 15.759C20.3193 11.9622 16.1 10.5413 12.5617 11.5614L13.6697 15.4049C15.8171 14.7858 17.1926 15.8508 17.4275 16.7597L21.3003 15.759ZM16.5715 7.1289C16.6107 7.23929 16.6371 7.49234 16.4069 7.87465C16.1777 8.25514 15.7446 8.65431 15.1327 8.89664L16.6054 12.6156C19.1759 11.5977 21.3979 8.76872 20.3411 5.79109L16.5715 7.1289ZM14.5694 6.87876C15.1819 6.63623 15.7265 6.64743 16.0855 6.7593C16.4342 6.86797 16.5378 7.03396 16.5715 7.12891L20.3411 5.79109C19.2504 2.71757 15.6719 2.13997 13.0967 3.15975L14.5694 6.87876ZM13.1306 8.64649C13.0914 8.53611 13.065 8.28306 13.2952 7.90075C13.5243 7.52026 13.9575 7.12109 14.5694 6.87876L13.0967 3.15975C10.5262 4.17767 8.30421 7.00668 9.36095 9.98431L13.1306 8.64649ZM15.1327 8.89664C14.5202 9.13917 13.9756 9.12797 13.6166 9.0161C13.2679 8.90742 13.1643 8.74144 13.1306 8.64649L9.36095 9.98431C10.4517 13.0578 14.0302 13.6354 16.6054 12.6156L15.1327 8.89664Z" fill="#007AFF" mask="url(#path-1-outside-1_9461_2084)"/>
</g>
</g>
</svg>
