<?xml version="1.0" encoding="UTF-8" standalone="no"?>
<svg
   width="20.975607"
   height="25.054234"
   viewBox="0 0 20.975607 25.054234"
   fill="none"
   version="1.1"
   id="svg2"
   sodipodi:docname="Anon Apps.svg"
   inkscape:export-filename="Anon Apps222.svg"
   inkscape:export-xdpi="1755.4286"
   inkscape:export-ydpi="1755.4286"
   xmlns:inkscape="http://www.inkscape.org/namespaces/inkscape"
   xmlns:sodipodi="http://sodipodi.sourceforge.net/DTD/sodipodi-0.dtd"
   xmlns="http://www.w3.org/2000/svg"
   xmlns:svg="http://www.w3.org/2000/svg">
  <defs
     id="defs2" />
  <sodipodi:namedview
     id="namedview2"
     pagecolor="#ffffff"
     bordercolor="#000000"
     borderopacity="0.25"
     inkscape:showpageshadow="2"
     inkscape:pageopacity="0.0"
     inkscape:pagecheckerboard="0"
     inkscape:deskcolor="#d1d1d1">
    <inkscape:page
       x="0"
       y="0"
       width="20.975607"
       height="25.054234"
       id="page2"
       margin="0"
       bleed="0" />
  </sodipodi:namedview>
  <g
     id="Anon Apps"
     transform="translate(-3.9980948,-1.9283569)">
    <g
       id="Union">
      <mask
         id="path-1-outside-1_9461_2084"
         maskUnits="userSpaceOnUse"
         x="3"
         y="1"
         width="22"
         height="26"
         fill="#000000">
        <rect
           fill="#ffffff"
           x="3"
           y="1"
           width="22"
           height="26"
           id="rect1" />
        <path
           fill-rule="evenodd"
           clip-rule="evenodd"
           d="M 21.0782,10.6931 C 21.8477,9.88188 22.8018,8.87624 22.558,7.49443 21.5,4.00001 18.3216,3.37127 14.4473,4.33682 10.573,5.30237 7.92288,8.28154 8.52803,10.991 c 0.12506,0.4471 0.47397,0.696 0.75777,0.8984 0.35609,0.2539 0.60966,0.4348 0.18985,0.8426 -0.02206,0.0214 -0.04269,0.0417 -0.06193,0.061 -2.42958,1.6988 -3.80462,4.3352 -3.31559,6.9346 0.7063,3.7541 5.03347,6.0092 9.66497,5.0369 4.6315,-0.9723 7.8136,-4.8038 7.1073,-8.558 C 22.5751,14.6373 21.6473,13.33 20.329,12.4108 20.323,12.4019 20.3167,12.393 20.3102,12.384 c -0.3617,-0.5002 0.1421,-1.0313 0.768,-1.6909 z m -1.7143,5.5662 c 0.6079,2.3529 -1.2039,4.9247 -4.0468,5.7442 -2.8428,0.8196 -5.64023,-0.4233 -6.24814,-2.7761 -0.6079,-2.3529 1.20394,-4.9247 4.04674,-5.7442 2.8429,-0.8196 5.6403,0.4233 6.2482,2.7761 z M 15.869,10.7561 C 17.8602,9.96764 19.0185,8.04419 18.4563,6.46 17.8941,4.8758 15.8242,4.23076 13.8331,5.01926 c -1.9912,0.7885 -3.1495,2.71195 -2.5873,4.29614 0.5622,1.5842 2.6321,2.2292 4.6232,1.4407 z"
           id="path1" />
      </mask>
      <path
         d="M 22.558,7.49443 24.5276,7.14698 24.5068,7.02927 24.4722,6.91488 Z m -1.4798,3.19867 -1.451,-1.37655 v 0 z m -6.6309,-6.35628 0.4836,1.94064 z m -5.91927,6.65418 -1.95191,0.4359 0.01155,0.0518 0.01428,0.051 z m 0.75777,0.8984 -1.1613,1.6283 v 0 z M 9.47565,12.732 8.08217,11.2973 v 0 z m -0.06193,0.061 1.14608,1.6391 0.1449,-0.1014 0.125,-0.1252 z m -3.31559,6.9346 -1.96551,0.3697 v 0 z m 9.66497,5.0369 -0.4109,-1.9573 v 0 z m 7.1073,-8.558 -1.9655,0.3698 v 0 z m -2.5414,-3.7957 -1.6573,1.1197 0.2083,0.3082 0.3051,0.2127 z m -0.0188,-0.0268 1.6207,-1.1719 -10e-5,-10e-5 z m -0.9463,3.8753 -1.9364,0.5004 v 0 z M 9.06896,19.2274 11.0054,18.7271 v -10e-5 z m 4.04674,-5.7442 0.554,1.9217 v 0 z M 18.4563,6.46 20.3411,5.79109 v 0 z m -2.5873,4.2961 0.7364,1.8595 z m -2.0359,-5.73684 0.7363,1.8595 v 0 z M 11.2458,9.3154 13.1306,8.64649 v 0 z m 9.3426,-1.47352 c 0.0195,0.11063 0.0139,0.23046 -0.1212,0.46383 -0.1668,0.28808 -0.4279,0.57644 -0.84,1.01084 l 2.9019,2.75295 c 0.6225,-0.6562 2.4442,-2.39569 1.9985,-4.92252 z M 14.9309,6.27746 c 1.7638,-0.43955 3.0952,-0.43887 3.9919,-0.13813 0.7632,0.25598 1.3691,0.77252 1.721,1.93465 l 3.8284,-1.1591 C 23.766,4.58259 22.2538,3.03756 20.1947,2.34695 18.2691,1.7011 16.0742,1.87019 13.9636,2.39618 Z m -4.451,4.27754 c -0.1218,-0.5454 0.0378,-1.3339 0.8223,-2.21577 0.775,-0.87125 2.0386,-1.66547 3.6287,-2.06177 L 13.9636,2.39618 C 11.6795,2.96543 9.68088,4.14357 8.31356,5.68065 6.95568,7.20712 6.09279,9.26288 6.57612,11.4269 Z m -0.0328,-0.2939 c -0.076,-0.0543 -0.1127,-0.0808 -0.1438,-0.1053 -0.0275,-0.0217 -0.0284,-0.0248 -0.0165,-0.0124 0.0132,0.0137 0.044,0.0481 0.0781,0.1036 0.0353,0.0577 0.0675,0.1276 0.0892,0.2053 l -3.85215,1.0774 c 0.33998,1.2156 1.30187,1.8306 1.52255,1.988 z m 0.422,3.9055 c 0.2047,-0.1988 0.497,-0.5268 0.674,-0.993 0.2089,-0.5506 0.2047,-1.1597 -0.0363,-1.7157 -0.2014,-0.465 -0.5122,-0.7581 -0.663,-0.8904 -0.1583,-0.1389 -0.3305,-0.2592 -0.3967,-0.3064 L 8.1245,13.5177 C 8.23638,13.5975 8.22934,13.595 8.20567,13.5742 8.18947,13.56 7.98257,13.3852 7.83654,13.0481 7.65105,12.62 7.65373,12.1485 7.80327,11.7544 7.86566,11.59 7.94023,11.4741 7.98878,11.4078 8.03748,11.3412 8.0748,11.3045 8.08217,11.2973 Z m -0.0394,0.0389 c 0.0111,-0.0111 0.0241,-0.0241 0.0394,-0.0389 L 8.08217,11.2973 c -0.02885,0.028 -0.057,0.0558 -0.08439,0.0832 z M 8.06365,19.3578 C 7.75792,17.7327 8.58725,15.8113 10.5598,14.4321 L 8.26768,11.1539 c -2.88665,2.0184 -4.8074,5.3698 -4.13506,8.9434 z m 7.28855,3.4494 c -3.9599,0.8313 -6.86178,-1.181 -7.28855,-3.4494 l -3.93103,0.7395 c 0.98582,5.24 6.73828,7.7379 12.04138,6.6246 z m 5.5527,-6.2309 c 0.4372,2.3238 -1.5864,5.3983 -5.5527,6.2309 l 0.8218,3.9147 c 5.2968,-1.112 9.6373,-5.7007 8.6619,-10.8852 z m -1.7198,-2.5249 c 0.9447,0.6587 1.5334,1.5342 1.7198,2.5249 l 3.931,-0.7396 C 24.4318,13.689 23.1647,11.9499 21.4729,10.7702 Z M 18.6895,13.5559 C 18.684,13.5483 18.678,13.5398 18.6717,13.5305 l 3.3145,-2.2393 c -0.0183,-0.0271 -0.0367,-0.0535 -0.0553,-0.0791 z m 0.9377,-4.23935 c -0.2504,0.26399 -0.7337,0.75465 -1.0391,1.28835 -0.1702,0.2973 -0.37,0.7447 -0.3963,1.3025 -0.0287,0.6091 0.1575,1.1781 0.4978,1.6486 l 3.2412,-2.344 c 0.0703,0.0971 0.1434,0.2289 0.1942,0.3939 0.0514,0.1667 0.0697,0.3341 0.0624,0.4898 -0.014,0.297 -0.1165,0.4765 -0.1277,0.4961 -0.0126,0.0219 0.0038,-0.0109 0.0986,-0.1209 0.0925,-0.1073 0.2064,-0.228 0.3708,-0.4014 z m -3.756,14.60875 c 3.5273,-1.017 6.3919,-4.4397 5.4291,-8.1663 l -3.8728,1.0007 c 0.2529,0.9791 -0.5061,2.6999 -2.6644,3.3221 z M 7.13255,19.7277 c 0.98099,3.7968 5.20025,5.2177 8.73865,4.1976 l -1.1081,-3.8435 c -2.1474,0.6191 -3.5229,-0.4459 -3.7577,-1.3547 z m 5.42915,-8.1663 c -3.52738,1.017 -6.39197,4.4397 -5.42915,8.1663 L 11.0054,18.727 c -0.253,-0.9791 0.506,-2.6999 2.6643,-3.3221 z m 8.7386,4.1976 C 20.3193,11.9622 16.1,10.5413 12.5617,11.5614 l 1.108,3.8435 c 2.1474,-0.6191 3.5229,0.4459 3.7578,1.3548 z M 16.5715,7.1289 c 0.0392,0.11039 0.0656,0.36344 -0.1646,0.74575 -0.2292,0.38049 -0.6623,0.77966 -1.2742,1.02199 l 1.4727,3.71896 c 2.5705,-1.0179 4.7925,-3.84688 3.7357,-6.82451 z M 14.5694,6.87876 c 0.6125,-0.24253 1.1571,-0.23133 1.5161,-0.11946 0.3487,0.10867 0.4523,0.27466 0.486,0.36961 L 20.3411,5.79109 C 19.2504,2.71757 15.6719,2.13997 13.0967,3.15975 Z M 13.1306,8.64649 C 13.0914,8.53611 13.065,8.28306 13.2952,7.90075 13.5243,7.52026 13.9575,7.12109 14.5694,6.87876 L 13.0967,3.15975 C 10.5262,4.17767 8.30421,7.00668 9.36095,9.98431 Z m 2.0021,0.25015 C 14.5202,9.13917 13.9756,9.12797 13.6166,9.0161 13.2679,8.90742 13.1643,8.74144 13.1306,8.64649 L 9.36095,9.98431 c 1.09075,3.07349 4.66925,3.65109 7.24445,2.63129 z"
         fill="#007AFF"
         mask="url(#path-1-outside-1_9461_2084)"
         id="path2"
         inkscape:label="path2"
         style="fill:#000000;fill-opacity:1;fill-rule:nonzero" />
    </g>
  </g>
</svg>
